<svg height="24" viewBox="0 -960 960 960" width="24" version="1.1" xmlns="http://www.w3.org/2000/svg" xmlns:svg="http://www.w3.org/2000/svg"><path fill="#ffffff" d="m 456.54655,-331.45728 h 46.9069 v -125.08927 h 125.08927 v -46.9069 H 503.45345 v -125.08927 h -46.9069 v 125.08927 H 331.45728 v 46.9069 h 125.08927 z m 23.50583,148.54349 q -61.63461,0 -115.86705,-23.39169 -54.23324,-23.39169 -94.35014,-63.49062 -40.11769,-40.0997 -63.51955,-94.3087 -23.40185,-54.20821 -23.40185,-115.84282 0,-61.63461 23.39169,-115.86705 23.39169,-54.23324 63.49062,-94.35014 40.0997,-40.11769 94.3087,-63.51955 54.20821,-23.40185 115.84282,-23.40185 61.63461,0 115.86705,23.39169 54.23324,23.39169 94.35014,63.49062 40.11769,40.0997 63.51955,94.3087 23.40185,54.20821 23.40185,115.84282 0,61.63461 -23.39169,115.86705 -23.39169,54.23324 -63.49062,94.35014 -40.0997,40.11769 -94.3087,63.51955 -54.20821,23.40185 -115.84282,23.40185 z M 480,-229.82148 q 104.76226,0 177.47039,-72.70813 72.70813,-72.70813 72.70813,-177.47039 0,-104.76226 -72.70813,-177.47039 Q 584.76226,-730.17852 480,-730.17852 q -104.76226,0 -177.47039,72.70813 -72.70813,72.70813 -72.70813,177.47039 0,104.76226 72.70813,177.47039 72.70813,72.70813 177.47039,72.70813 z M 480,-480 Z" style="stroke-width:0.781808" /></svg>