<?xml version="1.0" encoding="UTF-8" standalone="no"?>
<svg xmlns="http://www.w3.org/2000/svg" version="1.1" viewBox="0 -960 960 960" height="48px" width="48px">
   <path style="fill:#ffffff;stroke-width:1.11608088" d="m 274.21143,-123.38983 q -25.04709,0 -43.43006,-18.38297 -18.38297,-18.38297 -18.38297,-43.43005 v -578.64553 h -44.90105 v -34.34181 h 172.04834 v -29.18998 h 280.90862 v 29.18998 h 172.04834 v 34.34181 H 747.6016 v 578.64553 q 0,25.73347 -18.03922,43.7738 -18.03921,18.03922 -43.77381,18.03922 z M 713.2609,-763.84838 H 246.7391 v 578.64553 q 0,12.01907 8.15631,19.7457 8.15521,7.72663 19.31602,7.72663 h 411.57714 q 10.30255,0 18.88744,-8.5849 8.58489,-8.58601 8.58489,-18.88743 z M 385.64764,-250.2793 h 34.34181 v -422.13639 h -34.34181 z m 154.36291,0 h 34.34181 V -672.41569 H 540.01055 Z M 246.7391,-763.84838 v 606.11786 z" />
</svg>
