<svg xmlns="http://www.w3.org/2000/svg" id="bytm-svg-spritesheet" style="display: none;" inert="true">
  <symbol id="bytm-svg-icon-advanced_mode">
    <svg height="24" viewBox="0 -960 960 960" width="24" version="1.1" xmlns="http://www.w3.org/2000/svg" xmlns:svg="http://www.w3.org/2000/svg"><path fill="#ffffff" d="m 456.54655,-331.45728 h 46.9069 v -125.08927 h 125.08927 v -46.9069 H 503.45345 v -125.08927 h -46.9069 v 125.08927 H 331.45728 v 46.9069 h 125.08927 z m 23.50583,148.54349 q -61.63461,0 -115.86705,-23.39169 -54.23324,-23.39169 -94.35014,-63.49062 -40.11769,-40.0997 -63.51955,-94.3087 -23.40185,-54.20821 -23.40185,-115.84282 0,-61.63461 23.39169,-115.86705 23.39169,-54.23324 63.49062,-94.35014 40.0997,-40.11769 94.3087,-63.51955 54.20821,-23.40185 115.84282,-23.40185 61.63461,0 115.86705,23.39169 54.23324,23.39169 94.35014,63.49062 40.11769,40.0997 63.51955,94.3087 23.40185,54.20821 23.40185,115.84282 0,61.63461 -23.39169,115.86705 -23.39169,54.23324 -63.49062,94.35014 -40.0997,40.11769 -94.3087,63.51955 -54.20821,23.40185 -115.84282,23.40185 z M 480,-229.82148 q 104.76226,0 177.47039,-72.70813 72.70813,-72.70813 72.70813,-177.47039 0,-104.76226 -72.70813,-177.47039 Q 584.76226,-730.17852 480,-730.17852 q -104.76226,0 -177.47039,72.70813 -72.70813,72.70813 -72.70813,177.47039 0,104.76226 72.70813,177.47039 72.70813,72.70813 177.47039,72.70813 z M 480,-480 Z" style="stroke-width:0.781808" /></svg>
  </symbol>
  <symbol id="bytm-svg-icon-alert">
    <svg xmlns="http://www.w3.org/2000/svg" height="24px" viewBox="0 -960 960 960" width="24px" fill="#ffffff"><path d="M440-280h80v-240h-80v240Zm40-320q17 0 28.5-11.5T520-640q0-17-11.5-28.5T480-680q-17 0-28.5 11.5T440-640q0 17 11.5 28.5T480-600Zm0 520q-83 0-156-31.5T197-197q-54-54-85.5-127T80-480q0-83 31.5-156T197-763q54-54 127-85.5T480-880q83 0 156 31.5T763-763q54 54 85.5 127T880-480q0 83-31.5 156T763-197q-54 54-127 85.5T480-80Zm0-80q134 0 227-93t93-227q0-134-93-227t-227-93q-134 0-227 93t-93 227q0 134 93 227t227 93Zm0-320Z"/></svg>
  </symbol>
  <symbol id="bytm-svg-icon-arrow_down">
    <svg xmlns="http://www.w3.org/2000/svg" width="48" height="48" viewBox="0 -960 960 960"><path fill="#fff" d="M457.308-779.999v513.692L212.001-511.999l-32 31.999L480-180.001 779.999-480l-32-31.999-245.307 245.692v-513.692h-45.384Z"/></svg>
  </symbol>
  <symbol id="bytm-svg-icon-auto_like_enabled">
    <svg height="24" viewBox="0 -960 960 960" width="24" version="1.1" xmlns="http://www.w3.org/2000/svg" xmlns:svg="http://www.w3.org/2000/svg"><path fill="#ffffff" d="m 743.11379,-210.30602 c 2.63379,0 5.04524,-1.0974 7.23436,-3.29223 2.19483,-2.18913 3.29224,-4.60059 3.29224,-7.23437 V -541.8299 c 0,-2.63379 -1.09741,-5.04524 -3.29224,-7.23437 -2.18912,-2.19482 -4.60057,-3.29223 -7.23436,-3.29223 H 216.88621 c -2.63379,0 -5.04524,1.09741 -7.23436,3.29223 -2.19483,2.18913 -3.29224,4.60058 -3.29224,7.23437 v 6.04345 160.54216 h -51.30757 v -159.40841 -7.1772 c 0,-17.27926 5.98588,-31.90476 17.95765,-43.87652 11.97177,-11.97177 26.59727,-17.95766 43.87652,-17.95766 h 526.22758 c 17.27925,0 31.90475,5.98589 43.87652,17.95766 11.97177,11.97176 17.95765,26.59726 17.95765,43.87652 v 320.99728 c 0,17.27925 -5.98588,31.90476 -17.95765,43.87653 -11.97177,11.97176 -26.59727,17.95765 -43.87652,17.95765 H 389.18357 v -51.30758 z M 214.91088,-651.02096 v -51.30758 h 530.17824 v 51.30758 z m 102.61514,-98.67302 v -51.30758 h 324.94796 v 51.30758 z" style="stroke-width:0.855127" /><path fill="#ffffff" d="m 231.5903,-149.86765 262.37387,-261.27738 -37.20499,-37.20499 -225.16888,225.16888 -102.8928,-102.8928 -36.52517,36.53613 z" style="stroke-width:1.09648" /></svg>
  </symbol>
  <symbol id="bytm-svg-icon-auto_like">
    <svg height="24" viewBox="0 -960 960 960" width="24" version="1.1" xmlns="http://www.w3.org/2000/svg" xmlns:svg="http://www.w3.org/2000/svg"><path fill="#ffffff" d="m 743.11379,-210.30602 c 2.63379,0 5.04524,-1.0974 7.23436,-3.29223 2.19483,-2.18913 3.29224,-4.60059 3.29224,-7.23437 V -541.8299 c 0,-2.63379 -1.09741,-5.04524 -3.29224,-7.23437 -2.18912,-2.19482 -4.60057,-3.29223 -7.23436,-3.29223 H 216.88621 c -2.63379,0 -5.04524,1.09741 -7.23436,3.29223 -2.19483,2.18913 -3.29224,4.60058 -3.29224,7.23437 v 6.04345 82.50915 h -51.30757 v -81.3754 -7.1772 c 0,-17.27926 5.98588,-31.90476 17.95765,-43.87652 11.97177,-11.97177 26.59727,-17.95766 43.87652,-17.95766 h 526.22758 c 17.27925,0 31.90475,5.98589 43.87652,17.95766 11.97177,11.97176 17.95765,26.59726 17.95765,43.87652 v 320.99728 c 0,17.27925 -5.98588,31.90476 -17.95765,43.87653 -11.97177,11.97176 -26.59727,17.95765 -43.87652,17.95765 H 543.65226 l 21.69248,-51.30758 z M 214.91088,-651.02096 v -51.30758 h 530.17824 v 51.30758 z m 102.61514,-98.67302 v -51.30758 h 324.94796 v 51.30758 z" style="stroke-width:0.855127" /><path fill="#ffffff" d="M 444.37543,-104.40272 H 212.34209 v -291.14271 l 137.86733,-138.26669 39.7058,34.32667 c 3.70421,3.2036 6.77024,7.76206 9.19809,13.67535 2.42786,5.91329 3.64179,11.82659 3.64179,17.73988 v 1.56528 l -21.33043,70.95951 h 127.46227 c 16.99496,0 32.16904,6.69593 45.52222,20.0878 13.35319,13.39186 20.02979,28.60991 20.02979,45.65411 v 9.91346 c 0,3.28014 -0.34684,6.79682 -1.04051,10.55002 -0.69367,3.74971 -1.73418,7.01593 -3.12151,9.79866 l -65.55204,156.00658 c -4.8557,11.13091 -13.09305,20.43564 -24.71206,27.91422 -11.61902,7.47857 -23.49814,11.21786 -35.6374,11.21786 z m -180.25578,-53.24191 h 183.0386 l 66.65882,-163.51639 v -21.1425 H 311.75173 l 22.94812,-91.80999 -70.5802,70.75906 z m 0,-205.70982 v 205.70982 z m -51.77756,-32.19098 v 53.24191 h -58.80262 v 184.65889 h 58.80262 v 53.24191 H 100.48746 v -291.14271 z" style="stroke-width:0.521762" /></svg>
  </symbol>
  <symbol id="bytm-svg-icon-clear_list">
    <svg height="24" viewBox="0 -960 960 960" width="24" version="1.1" id="svg1" xml:space="preserve" xmlns="http://www.w3.org/2000/svg" xmlns:svg="http://www.w3.org/2000/svg"><path fill="#ffffff" d="M 362.31,-260.001 V -320 h -260 v 59.999 z m 0,-379.999 v -59.999 h -260 V -640 Z m 0,189.999 v -59.998 h -260 v 59.998 z M 817.69,-640 h 40 v -59.999 H 703.08 v -43.846 H 572.31 v 43.846 H 417.69 V -640 h 40 v 351.535 c 0,20.20667 7,37.31 21,51.31 14,14 31.10333,21 51.31,21 h 215.38 c 20.20667,0 37.31,-7 51.31,-21 14,-14 21,-31.10333 21,-51.31 z m -60,0 v 351.535 c 0,3.08 -1.28,5.9 -3.84,8.46 -2.56667,2.56667 -5.39,3.85 -8.47,3.85 H 530 c -3.07333,0 -5.89333,-1.28333 -8.46,-3.85 -2.56667,-2.56 -3.85,-5.38 -3.85,-8.46 V -640 Z m 0,0 v 363.845 z" /></svg>
  </symbol>
  <symbol id="bytm-svg-icon-copy">
    <svg xmlns="http://www.w3.org/2000/svg" height="24px" viewBox="0 -960 960 960" width="24px"><path fill="#ffffff" d="M364.62-280q-27.62 0-46.12-18.5Q300-317 300-344.62v-430.76q0-27.62 18.5-46.12Q337-840 364.62-840h310.76q27.62 0 46.12 18.5Q740-803 740-775.38v430.76q0 27.62-18.5 46.12Q703-280 675.38-280H364.62Zm0-40h310.76q9.24 0 16.93-7.69 7.69-7.69 7.69-16.93v-430.76q0-9.24-7.69-16.93-7.69-7.69-16.93-7.69H364.62q-9.24 0-16.93 7.69-7.69 7.69-7.69 16.93v430.76q0 9.24 7.69 16.93 7.69 7.69 16.93 7.69Zm-120 160q-27.62 0-46.12-18.5Q180-197 180-224.61v-470.77h40v470.77q0 9.23 7.69 16.92 7.69 7.69 16.93 7.69h350.76v40H244.62ZM340-320v-480 480Z"/></svg>
  </symbol>
  <symbol id="bytm-svg-icon-delete">
    <svg xmlns="http://www.w3.org/2000/svg" width="48" height="48" version="1.1" viewBox="0 -960 960 960"><path fill="#ffffff" style="stroke-width:1.11608088" d="m 274.21143,-123.38983 q -25.04709,0 -43.43006,-18.38297 -18.38297,-18.38297 -18.38297,-43.43005 v -578.64553 h -44.90105 v -34.34181 h 172.04834 v -29.18998 h 280.90862 v 29.18998 h 172.04834 v 34.34181 H 747.6016 v 578.64553 q 0,25.73347 -18.03922,43.7738 -18.03921,18.03922 -43.77381,18.03922 z M 713.2609,-763.84838 H 246.7391 v 578.64553 q 0,12.01907 8.15631,19.7457 8.15521,7.72663 19.31602,7.72663 h 411.57714 q 10.30255,0 18.88744,-8.5849 8.58489,-8.58601 8.58489,-18.88743 z M 385.64764,-250.2793 h 34.34181 v -422.13639 h -34.34181 z m 154.36291,0 h 34.34181 V -672.41569 H 540.01055 Z M 246.7391,-763.84838 v 606.11786 z"/></svg>
  </symbol>
  <symbol id="bytm-svg-icon-edit">
    <svg xmlns="http://www.w3.org/2000/svg" height="24px" viewBox="0 -960 960 960" width="24px"><path fill="#ffffff" d="M200-200h43.92l427.93-427.92-43.93-43.93L200-243.92V-200Zm-40 40v-100.77l527.23-527.77q6.15-5.48 13.57-8.47 7.43-2.99 15.49-2.99t15.62 2.54q7.55 2.54 13.94 9.15l42.69 42.93q6.61 6.38 9.04 14 2.42 7.63 2.42 15.25 0 8.13-2.74 15.56-2.74 7.42-8.72 13.57L260.77-160H160Zm600.77-556.31-44.46-44.46 44.46 44.46ZM649.5-649.5l-21.58-22.35 43.93 43.93-22.35-21.58Z"/></svg>
  </symbol>
  <symbol id="bytm-svg-icon-error">
    <svg width="48" height="48" viewBox="0 -960 960 960" version="1.1" xmlns="http://www.w3.org/2000/svg" xmlns:svg="http://www.w3.org/2000/svg"><path fill="#ffffff" d="m 479.9744,-279.27428 c 11.2844,0 20.56402,-3.62889 27.83885,-10.88666 7.27483,-7.25872 10.91227,-16.53027 10.91227,-27.81467 0,-11.28441 -3.62889,-20.56401 -10.88667,-27.83886 -7.25777,-7.27483 -16.52885,-10.91225 -27.81325,-10.91225 -11.2844,0 -20.56402,3.62935 -27.83885,10.88808 -7.27483,7.25777 -10.91227,16.52885 -10.91227,27.81325 0,11.28441 3.62889,20.56401 10.88667,27.83886 7.25777,7.27483 16.52885,10.91225 27.81325,10.91225 z M 453.79114,-431.846 h 56.87872 v -249.538 h -56.87872 z m 26.50962,295.05868 c -47.5411,0 -92.06764,-9.00785 -133.57963,-27.02355 -41.51198,-18.0157 -77.86703,-42.61569 -109.06515,-73.79995 -31.19871,-31.18487 -55.80984,-67.54655 -73.83337,-109.08502 -18.02353,-41.53848 -27.03529,-86.10356 -27.03529,-133.69524 0,-47.36047 9.00785,-91.87708 27.02355,-133.54983 18.0157,-41.67275 42.61569,-77.95765 73.79995,-108.8547 31.18487,-30.89766 67.54655,-55.35825 109.08502,-73.38178 41.53848,-18.02353 86.10356,-27.03529 133.69524,-27.03529 47.36047,0 91.87708,9.00785 133.54983,27.02355 41.67275,18.0157 77.95765,42.46516 108.8547,73.34836 30.89766,30.8838 55.35825,67.20092 73.38178,108.95134 18.02353,41.74983 27.03529,86.27938 27.03529,133.58867 0,47.5411 -9.00785,92.06764 -27.02355,133.57963 -18.0157,41.51198 -42.46516,77.81164 -73.34836,108.89896 -30.8838,31.08732 -67.20092,55.69814 -108.95134,73.83247 -41.74983,18.13492 -86.27938,27.20238 -133.58867,27.20238 z m 0.15084,-40.99054 c 83.81155,0 155.05968,-29.43478 213.74439,-88.30434 58.6841,-58.86956 88.02615,-130.32602 88.02615,-214.3694 0,-83.81155 -29.28575,-155.05968 -87.85726,-213.74439 -58.5715,-58.6841 -130.02646,-88.02615 -214.36488,-88.02615 -83.74231,0 -155.04824,29.28575 -213.9178,87.85726 -58.86956,58.5715 -88.30434,130.02646 -88.30434,214.36488 0,83.74231 29.43478,155.04824 88.30434,213.9178 58.86956,58.86956 130.32602,88.30434 214.3694,88.30434 z" /></svg>
  </symbol>
  <symbol id="bytm-svg-icon-experimental">
    <svg height="24" viewBox="0 -960 960 960" width="24" version="1.1" xmlns="http://www.w3.org/2000/svg" xmlns:svg="http://www.w3.org/2000/svg"><path fill="#ffffff" d="m 284.25714,-242.31294 q -26.75385,0 -38.03213,-23.87574 -11.27899,-23.87573 5.44514,-44.41755 l 158.42239,-192.51659 v -172.62004 h -33.34061 q -8.91329,0 -14.94286,-6.03237 -6.02958,-6.03168 -6.02958,-14.94916 0,-8.91679 6.02958,-14.93938 6.02957,-6.02329 14.94286,-6.02329 h 206.49614 q 8.91329,0 14.94286,6.03238 6.02958,6.03238 6.02958,14.94916 0,8.91749 -6.02958,14.94008 -6.02957,6.02258 -14.94286,6.02258 h -33.34061 v 172.62004 l 158.42239,192.51659 q 16.72413,20.54182 5.44514,44.41755 -11.27828,23.87574 -38.03213,23.87574 z m 0,-41.9442 H 675.74286 L 507.96327,-488.38898 v -187.35388 h -55.92654 v 187.35388 z M 480,-480 Z" style="stroke-width:0.699082" /></svg>
  </symbol>
  <symbol id="bytm-svg-icon-globe_small">
    <svg height="24" viewBox="0 -960 960 960" width="24" version="1.1" xml:space="preserve" xmlns="http://www.w3.org/2000/svg" xmlns:svg="http://www.w3.org/2000/svg"><path fill="#ffffff" d="m 480,-183.00679 q -61.08229,0 -115.27978,-23.4172 -54.19827,-23.41642 -94.53944,-63.75679 -40.34037,-40.34117 -63.75679,-94.53944 -23.4172,-54.19749 -23.4172,-115.27978 0,-61.56294 23.4172,-115.5205 23.41642,-53.95755 63.75679,-94.29872 40.34117,-40.34037 94.53944,-63.75679 54.19749,-23.4172 115.27978,-23.4172 61.56294,0 115.5205,23.4172 53.95755,23.41642 94.29872,63.75679 40.34037,40.34117 63.75679,94.29872 23.4172,53.95756 23.4172,115.5205 0,61.08229 -23.4172,115.27978 -23.41642,54.19827 -63.75679,94.53944 -40.34117,40.34037 -94.29872,63.75679 -53.95756,23.4172 -115.5205,23.4172 z m 0,-47.55422 q 23.92833,-31.74396 40.28098,-64.02877 16.35265,-32.28481 26.63333,-70.5814 H 413.08569 q 10.8817,39.49942 26.93423,71.78423 16.05175,32.2848 39.98008,62.82594 z m -60.53988,-8.59719 q -17.97596,-25.79158 -32.28481,-58.64771 -14.30886,-32.85613 -22.24485,-67.36527 H 258.87704 q 24.77008,48.69841 66.43364,81.82497 41.66435,33.12655 94.14944,44.18801 z m 121.07976,0 q 52.48509,-11.06146 94.14944,-44.18801 41.66356,-33.12656 66.43364,-81.82497 H 595.06954 q -9.43894,34.81003 -23.74779,67.66617 -14.30887,32.85613 -30.78187,58.34681 z M 239.21837,-412.06341 h 116.21297 q -2.94571,-17.43511 -4.26811,-34.17853 -1.32241,-16.74421 -1.32241,-33.75806 0,-17.01385 1.32241,-33.75806 1.3224,-16.74342 4.26811,-34.17853 H 239.21837 q -4.50883,15.93216 -6.9137,33.12655 -2.40487,17.19438 -2.40487,34.81004 0,17.61566 2.40487,34.81004 2.40487,17.19439 6.9137,33.12655 z m 163.10598,0 h 155.3513 q 2.94571,-17.43511 4.2689,-33.87841 1.3224,-16.44252 1.3224,-34.05818 0,-17.61566 -1.3224,-34.05818 -1.32319,-16.4433 -4.2689,-33.87841 h -155.3513 q -2.94571,17.43511 -4.2689,33.87841 -1.3224,16.44252 -1.3224,34.05818 0,17.61566 1.3224,34.05818 1.32319,16.4433 4.2689,33.87841 z m 202.24431,0 h 116.21297 q 4.50883,-15.93216 6.9137,-33.12655 2.40487,-17.19438 2.40487,-34.81004 0,-17.61566 -2.40487,-34.81004 -2.40487,-17.19439 -6.9137,-33.12655 H 604.56866 q 2.94571,17.43511 4.26811,34.17853 1.32241,16.74421 1.32241,33.75806 0,17.01385 -1.32241,33.75806 -1.3224,16.74342 -4.26811,34.17853 z m -9.49912,-182.76541 h 106.05342 q -25.07098,-49.29943 -65.98268,-81.82497 -40.91249,-32.52475 -94.6004,-44.48892 17.97596,27.29454 31.98391,59.6997 14.00874,32.40518 22.54575,66.61419 z m -181.98385,0 h 133.82862 q -10.8817,-39.19852 -27.38519,-72.23519 -16.50271,-33.03588 -39.52912,-62.37498 -23.02641,29.3391 -39.52912,62.37498 -16.50349,33.03667 -27.38519,72.23519 z m -154.20865,0 h 106.05342 q 8.53701,-34.20901 22.54575,-66.61419 14.00795,-32.40516 31.98391,-59.6997 -53.98804,11.96417 -94.75046,44.63977 -40.76164,32.67559 -65.83262,81.67412 z" style="stroke-width:0.781563"/></svg>
  </symbol>
  <symbol id="bytm-svg-icon-globe">
    <svg xmlns="http://www.w3.org/2000/svg" height="24" viewBox="0 -960 960 960" width="24"><path fill="#ffffff" d="M480-100.001q-78.154 0-147.499-29.962-69.346-29.961-120.962-81.576-51.615-51.616-81.576-120.962Q100.001-401.846 100.001-480q0-78.769 29.962-147.807 29.961-69.038 81.576-120.654 51.616-51.615 120.962-81.576Q401.846-859.999 480-859.999q78.769 0 147.807 29.962 69.038 29.961 120.654 81.576 51.615 51.616 81.576 120.654Q859.999-558.769 859.999-480q0 78.154-29.962 147.499-29.961 69.346-81.576 120.962-51.616 51.615-120.654 81.576Q558.769-100.001 480-100.001Zm0-60.845q30.616-40.616 51.539-81.924 20.923-41.308 34.077-90.308H394.384q13.923 50.539 34.462 91.847 20.538 41.308 51.154 80.385Zm-77.46-11q-23-33-41.308-75.039t-28.462-86.193H197.076q31.693 62.309 85.001 104.694 53.309 42.385 120.463 56.538Zm154.92 0q67.154-14.153 120.463-56.538 53.308-42.385 85.001-104.694H627.23q-12.077 44.539-30.385 86.578t-39.385 74.654Zm-385.537-221.23h148.693q-3.769-22.308-5.461-43.731-1.692-21.424-1.692-43.193t1.692-43.193q1.692-21.423 5.461-43.731H171.923q-5.769 20.385-8.846 42.385Q160-502.539 160-480t3.077 44.539q3.077 22 8.846 42.385Zm208.692 0h198.77q3.769-22.308 5.462-43.347 1.692-21.038 1.692-43.577 0-22.539-1.692-43.577-1.693-21.039-5.462-43.347h-198.77q-3.769 22.308-5.462 43.347-1.692 21.038-1.692 43.577 0 22.539 1.692 43.577 1.693 21.039 5.462 43.347Zm258.769 0h148.693q5.769-20.385 8.846-42.385Q800-457.461 800-480t-3.077-44.539q-3.077-22-8.846-42.385H639.384q3.769 22.308 5.461 43.731 1.692 21.424 1.692 43.193t-1.692 43.193q-1.692 21.423-5.461 43.731ZM627.23-626.922h135.694Q730.846-690 678.5-731.616q-52.347-41.615-121.04-56.923 23 34.923 40.923 76.385 17.924 41.462 28.847 85.232Zm-232.846 0h171.232q-13.923-50.154-35.039-92.424-21.115-42.269-50.577-79.808-29.462 37.539-50.577 79.808-21.116 42.27-35.039 92.424Zm-197.308 0H332.77q10.923-43.77 28.847-85.232 17.923-41.462 40.923-76.385-69.077 15.308-121.232 57.116-52.154 41.808-84.232 104.501Z"/></svg>
  </symbol>
  <symbol id="bytm-svg-icon-help">
    <svg height="24" viewBox="0 -960 960 960" width="24" version="1.1" xmlns="http://www.w3.org/2000/svg" xmlns:svg="http://www.w3.org/2000/svg"><path fill="#ffffff" d="m 477.86205,-223.44616 q 22.44847,0 37.94859,-15.50013 15.50013,-15.50013 15.50013,-37.94859 0,-22.44845 -15.50013,-37.94858 -15.50012,-15.50013 -37.94859,-15.50013 -22.44846,0 -37.94859,15.50013 -15.50013,15.50013 -15.50013,37.94858 0,22.44846 15.50013,37.94859 15.50013,15.50013 37.94859,15.50013 z m -38.48307,-164.62205 h 79.10409 q 0,-35.27616 8.01731,-55.58665 8.01731,-20.31053 45.43141,-55.58667 27.79333,-27.79334 43.82796,-52.91424 16.03461,-25.1209 16.03461,-60.39705 0,-59.86256 -43.82795,-91.93179 -43.82795,-32.06923 -103.6905,-32.06923 -60.93154,0 -98.88013,32.06923 -37.9486,32.06923 -52.91424,76.96615 l 70.5523,27.79334 q 5.34488,-19.24155 24.05193,-41.69 18.70705,-22.44847 57.19014,-22.44847 34.20716,0 51.31076,18.70705 17.10358,18.70705 17.10358,41.15552 0,21.37949 -12.82769,40.08654 -12.82769,18.70705 -32.06923,34.74167 -47.03486,41.68999 -57.72461,63.06948 -10.68974,21.37949 -10.68974,78.03512 z M 480,-52.410262 q -88.72486,0 -166.76,-33.672694 Q 235.20487,-119.75565 177.48026,-177.48026 119.75565,-235.20487 86.082956,-313.24 52.410262,-391.27514 52.410262,-480 q 0,-88.72486 33.672694,-166.76 33.672694,-78.03513 91.397304,-135.75974 57.72461,-57.72461 135.75974,-91.3973 78.03514,-33.6727 166.76,-33.6727 88.72486,0 166.76,33.6727 78.03513,33.67269 135.75974,91.3973 57.72461,57.72461 91.3973,135.75974 33.6727,78.03514 33.6727,166.76 0,88.72486 -33.6727,166.76 -33.67269,78.03513 -91.3973,135.75974 Q 724.79513,-119.75565 646.76,-86.082956 568.72486,-52.410262 480,-52.410262 Z m 0,-85.517948 q 143.24256,0 242.65718,-99.41461 99.41461,-99.41462 99.41461,-242.65718 0,-143.24256 -99.41461,-242.65718 Q 623.24256,-822.07179 480,-822.07179 q -143.24256,0 -242.65718,99.41461 -99.41461,99.41462 -99.41461,242.65718 0,143.24256 99.41461,242.65718 99.41462,99.41461 242.65718,99.41461 z M 480,-480 Z" style="stroke-width:1.06897" /></svg>
  </symbol>
  <symbol id="bytm-svg-icon-image_filled">
    <svg xmlns="http://www.w3.org/2000/svg" height="24" viewBox="0 -960 960 960" width="24"><path fill="#ffffff" d="M224.615-160Q197-160 178.5-178.5 160-197 160-224.615v-510.77Q160-763 178.5-781.5 197-800 224.615-800h510.77Q763-800 781.5-781.5 800-763 800-735.385v510.77Q800-197 781.5-178.5 763-160 735.385-160h-510.77ZM300-300h366.154L553.077-450.769 448.462-318.462l-70.001-84.615L300-300Z"/></svg>
  </symbol>
  <symbol id="bytm-svg-icon-image">
    <svg xmlns="http://www.w3.org/2000/svg" height="24" viewBox="0 -960 960 960" width="24"><path fill="#ffffff" d="M224.615-160Q197-160 178.5-178.5 160-197 160-224.615v-510.77Q160-763 178.5-781.5 197-800 224.615-800h510.77Q763-800 781.5-781.5 800-763 800-735.385v510.77Q800-197 781.5-178.5 763-160 735.385-160h-510.77Zm0-40h510.77q9.23 0 16.923-7.692Q760-215.385 760-224.615v-510.77q0-9.23-7.692-16.923Q744.615-760 735.385-760h-510.77q-9.23 0-16.923 7.692Q200-744.615 200-735.385v510.77q0 9.23 7.692 16.923Q215.385-200 224.615-200ZM300-300h366.154L553.077-450.769 448.462-318.462l-70.001-84.615L300-300ZM200-200v-560 560Z"/></svg>
  </symbol>
  <symbol id="bytm-svg-icon-link">
    <svg xmlns="http://www.w3.org/2000/svg" height="24" viewBox="0 -960 960 960" width="24"><path fill="#ffffff" d="M432.307-298.463H281.539q-75.338 0-128.438-53.093-53.1-53.093-53.1-128.422t53.1-128.444q53.1-53.115 128.438-53.115h150.768v59.998H281.539q-50.385 0-85.962 35.577Q160-530.385 160-480q0 50.385 35.577 85.962 35.577 35.577 85.962 35.577h150.768v59.998ZM330.001-450.001v-59.998h299.998v59.998H330.001Zm197.692 151.538v-59.998h150.768q50.385 0 85.962-35.577Q800-429.615 800-480q0-50.385-35.577-85.962-35.577-35.577-85.962-35.577H527.693v-59.998h150.768q75.338 0 128.438 53.093 53.1 53.093 53.1 128.422t-53.1 128.444q-53.1 53.115-128.438 53.115H527.693Z"/></svg>
  </symbol>
  <symbol id="bytm-svg-icon-lyrics">
    <svg xmlns="http://www.w3.org/2000/svg" width="48" height="48" version="1.1" viewBox="0 -960 960 960"><path fill="#fff" d="m 665.91424,-110.98704 q -53.00536,0 -90.49364,-36.9413 -37.48966,-36.93993 -37.48966,-89.71361 0,-53.65242 36.78639,-91.09683 36.78502,-37.44442 89.33662,-37.44442 24.13447,0 46.07552,8.85867 21.94105,8.85731 40.8168,22.67174 v -434.36017 h 198.88422 v 74.13347 H 793.12848 v 458.19305 q 0,52.37475 -37.10444,89.03776 -37.10444,36.66164 -90.1098,36.66164 z M 17.627117,-342.9823 v -42.18221 H 394.9378 v 42.18221 z m 0,-191.9256 v -42.18083 H 604.89468 v 42.18083 z m 0,-191.92423 v -42.18083 H 604.89468 v 42.18083 z" style="stroke-width:1.37089"/></svg>
  </symbol>
  <symbol id="bytm-svg-icon-prompt">
    <svg height="24" viewBox="0 -960 960 960" width="24" version="1.1" xmlns="http://www.w3.org/2000/svg" xmlns:svg="http://www.w3.org/2000/svg"><path fill="#ffffff" d="m 477.86205,-223.44616 q 22.44847,0 37.94859,-15.50013 15.50013,-15.50013 15.50013,-37.94859 0,-22.44845 -15.50013,-37.94858 -15.50012,-15.50013 -37.94859,-15.50013 -22.44846,0 -37.94859,15.50013 -15.50013,15.50013 -15.50013,37.94858 0,22.44846 15.50013,37.94859 15.50013,15.50013 37.94859,15.50013 z m -38.48307,-164.62205 h 79.10409 q 0,-35.27616 8.01731,-55.58665 8.01731,-20.31053 45.43141,-55.58667 27.79333,-27.79334 43.82796,-52.91424 16.03461,-25.1209 16.03461,-60.39705 0,-59.86256 -43.82795,-91.93179 -43.82795,-32.06923 -103.6905,-32.06923 -60.93154,0 -98.88013,32.06923 -37.9486,32.06923 -52.91424,76.96615 l 70.5523,27.79334 q 5.34488,-19.24155 24.05193,-41.69 18.70705,-22.44847 57.19014,-22.44847 34.20716,0 51.31076,18.70705 17.10358,18.70705 17.10358,41.15552 0,21.37949 -12.82769,40.08654 -12.82769,18.70705 -32.06923,34.74167 -47.03486,41.68999 -57.72461,63.06948 -10.68974,21.37949 -10.68974,78.03512 z M 480,-52.410262 q -88.72486,0 -166.76,-33.672694 Q 235.20487,-119.75565 177.48026,-177.48026 119.75565,-235.20487 86.082956,-313.24 52.410262,-391.27514 52.410262,-480 q 0,-88.72486 33.672694,-166.76 33.672694,-78.03513 91.397304,-135.75974 57.72461,-57.72461 135.75974,-91.3973 78.03514,-33.6727 166.76,-33.6727 88.72486,0 166.76,33.6727 78.03513,33.67269 135.75974,91.3973 57.72461,57.72461 91.3973,135.75974 33.6727,78.03514 33.6727,166.76 0,88.72486 -33.6727,166.76 -33.67269,78.03513 -91.3973,135.75974 Q 724.79513,-119.75565 646.76,-86.082956 568.72486,-52.410262 480,-52.410262 Z m 0,-85.517948 q 143.24256,0 242.65718,-99.41461 99.41461,-99.41462 99.41461,-242.65718 0,-143.24256 -99.41461,-242.65718 Q 623.24256,-822.07179 480,-822.07179 q -143.24256,0 -242.65718,99.41461 -99.41461,99.41462 -99.41461,242.65718 0,143.24256 99.41461,242.65718 99.41462,99.41461 242.65718,99.41461 z M 480,-480 Z" style="stroke-width:1.06897" /></svg>
  </symbol>
  <symbol id="bytm-svg-icon-reload">
    <svg xmlns="http://www.w3.org/2000/svg" height="24" viewBox="0 -960 960 960" width="24"><path fill="#ffffff" d="M483.077-200q-117.25 0-198.625-81.339-81.375-81.34-81.375-198.539 0-117.199 81.375-198.661Q365.827-760 483.077-760q71.308 0 133.538 33.884 62.231 33.885 100.308 94.577V-760h40v209.231H547.692v-40h148q-31.231-59.846-87.884-94.539Q551.154-720 483.077-720q-100 0-170 70t-70 170q0 100 70 170t170 70q77 0 139-44t87-116h42.462Q725.077-310.154 651-255.077T483.077-200Z"/></svg>
  </symbol>
  <symbol id="bytm-svg-icon-restore_time">
    <svg height="24" viewBox="0 -960 960 960" width="24" fill="#ffffff" xmlns="http://www.w3.org/2000/svg" xmlns:svg="http://www.w3.org/2000/svg"><path d="m 665.375,-356.15887 c 3.13219,-2.22557 4.92254,-3.39974 8.18358,-6.5099 46.04231,-43.91212 73.77946,-98.12363 83.21142,-162.63453 H 818 c -7.29301,64.31016 -33.77448,121.02623 -70.3911,169.14443 z m -446.91182,0 c -17.92672,-22.07466 -39.1615,-48.47155 -51.30318,-76.53443 -17.84667,-41.22667 -26.77,-85.43 -26.77,-132.61 0,-47.18 8.92333,-91.38333 26.77,-132.61 17.84,-41.23333 42.09333,-77.18333 72.76,-107.85 30.66667,-30.66667 66.61667,-54.92333 107.85,-72.77 41.23333,-17.84667 85.43667,-26.77 132.61,-26.77 50.31333,0 98.11,10.57667 143.39,31.73 45.28,21.15333 84.15,50.88333 116.61,89.19 v -94.77 h 60 v 203.08 H 597.31 v -60 h 104.61 c -27.58667,-34 -60.48333,-60.70333 -98.69,-80.11 -38.20667,-19.41333 -80.09417,-36.77625 -123.7875,-36.77625 -78,0 -144.16667,27.16667 -198.5,81.5 -54.33333,54.33333 -81.5,120.5 -81.5,198.5 0,78 29.98193,141.49027 81.5,198.5 4.14592,4.58786 11.47162,13.91745 16.46585,18.30068 z M 599.31,-404.2233 450.39,-553.1533 v -212.15 h 59.99 v 187.85 l 131.08,131.07 z" /></svg>
  </symbol>
  <symbol id="bytm-svg-icon-skip_to">
    <svg xmlns="http://www.w3.org/2000/svg" width="24" height="24" viewBox="0 -960 960 960"><path fill="#fff" d="M140.001-260.001V-320h488.46v59.999h-488.46Zm637.845-38.077L595.155-480l182.691-181.537 42.153 42.153L679.46-480l140.539 139.769-42.153 42.153ZM140.001-450.001v-59.998h371.537v59.998H140.001Zm0-189.999v-59.999h488.46V-640h-488.46Z"/></svg>
  </symbol>
  <symbol id="bytm-svg-icon-speed">
    <svg xmlns="http://www.w3.org/2000/svg" height="24px" viewBox="0 -960 960 960" width="24px" fill="#ffffff"><path d="M424.15-346.15q21.31 21.3 54.89 20.23 33.57-1.08 49.27-24.23l217.07-314.46-315.23 216.3q-23.53 15.7-25.42 48.27-1.88 32.58 19.42 53.89ZM480-780q57.08 0 106.96 14.96 49.89 14.96 96.35 45.27l-56.39 36.46q-34.15-18.15-70.8-27.42Q519.46-720 480-720q-133 0-226.5 93.5T160-400q0 42 11.5 83t32.5 77h552q23-38 33.5-79t10.5-85q0-36-8.88-72.88-8.89-36.89-27.43-70.04l36.46-56.39q29.62 48.54 44.43 97.12 14.8 48.58 15.42 100.96.61 54.31-12.23 102.65-12.85 48.35-38.69 94.58-7.93 13-22.31 20.5Q772.38-180 756-180H204q-16 0-30.19-7.69-14.19-7.7-22.89-21.85-22.92-40-36.92-87.23Q100-344 100-400q0-78.38 29.74-147.37 29.74-68.99 81.19-120.85 51.46-51.86 120.99-81.82Q401.46-780 480-780Zm4.31 295.69Z"/></svg>
  </symbol>
  <symbol id="bytm-svg-icon-spinner">
    <svg xmlns="http://www.w3.org/2000/svg" xmlns:xlink="http://www.w3.org/1999/xlink" width="200" height="200" preserveAspectRatio="xMidYMid" viewBox="0 0 100 100"><circle cx="50" cy="50" r="35" fill="none" stroke="#fff" stroke-dasharray="164.934 56.978" stroke-width="6" transform="matrix(1,0,0,1,0,0)"/></svg>
  </symbol>
  <symbol id="bytm-svg-icon-upload">
    <svg xmlns="http://www.w3.org/2000/svg" height="24px" viewBox="0 -960 960 960" width="24px"><path fill="#ffffff" d="M460-249.23h40V-437l84 84 28.31-28.54L480-513.85 347.69-381.54l28.54 28.31L460-437v187.77ZM264.62-120q-27.62 0-46.12-18.5Q200-157 200-184.62v-590.76q0-27.62 18.5-46.12Q237-840 264.62-840H580l180 180v475.38q0 27.62-18.5 46.12Q723-120 695.38-120H264.62ZM560-640v-160H264.62q-9.24 0-16.93 7.69-7.69 7.69-7.69 16.93v590.76q0 9.24 7.69 16.93 7.69 7.69 16.93 7.69h430.76q9.24 0 16.93-7.69 7.69-7.69 7.69-16.93V-640H560ZM240-800v160-160 640-640Z"/></svg>
  </symbol>
</svg>