<?xml version="1.0" encoding="UTF-8" standalone="no"?>
<svg
   height="24"
   viewBox="0 -960 960 960"
   width="24"
   fill="#e8eaed"
   version="1.1"
   id="svg1"
   xmlns="http://www.w3.org/2000/svg"
   xmlns:svg="http://www.w3.org/2000/svg">
  <defs
     id="defs1" />
  <path
     d="m 480.07,-100 q -78.84,0 -148.21,-29.92 -69.37,-29.92 -120.68,-81.21 -51.31,-51.29 -81.25,-120.63 Q 100,-401.1 100,-479.93 q 0,-78.84 29.92,-148.21 29.92,-69.37 81.21,-120.68 51.29,-51.31 120.63,-81.25 69.34,-29.93 148.17,-29.93 78.84,0 148.21,29.92 69.37,29.92 120.68,81.21 51.31,51.29 81.25,120.63 29.93,69.34 29.93,148.17 0,78.84 -29.92,148.21 -29.92,69.37 -81.21,120.68 -51.29,51.31 -120.63,81.25 Q 558.9,-100 480.07,-100 Z M 480,-160 q 134,0 227,-93 93,-93 93,-227 0,-134 -93,-227 -93,-93 -227,-93 -134,0 -227,93 -93,93 -93,227 0,134 93,227 93,93 227,93 z m 0,-320 z"
     id="path1" />
  <path
     d="m 635.90945,-289.71238 h -267.3035 v -304.9307 l 168.59491,-167.6103 21.49761,21.4977 c 2.6385,2.6385 4.83019,6.1324 6.57507,10.482 1.74064,4.3494 2.61096,8.447 2.61096,12.2925 v 6.448 l -26.97366,116.8901 H 711.1638 c 12.08712,0 22.76394,4.6354 32.03043,13.9061 9.27075,9.2665 13.90612,19.9433 13.90612,32.0304 v 41.0449 c 0,2.6385 -0.34305,5.4888 -1.02914,8.5508 -0.68186,3.062 -1.44631,5.9144 -2.29333,8.5571 l -72.81491,171.8158 c -3.64646,8.1442 -9.75355,15.0178 -18.32126,20.6209 -8.5677,5.6031 -17.47845,8.4047 -26.73226,8.4047 z m -229.18717,-38.1164 h 229.18717 c 1.79148,0 3.62317,-0.4891 5.49511,-1.4675 1.87617,-0.9783 3.30342,-2.6067 4.28173,-4.8852 l 73.29772,-171.5235 v -43.0016 c 0,-2.2827 -0.73268,-4.1568 -2.19804,-5.6222 -1.46537,-1.4653 -3.33942,-2.198 -5.62217,-2.198 H 492.73179 l 31.85891,-139.2707 -117.86842,117.3792 z m 0,-250.5895 v 250.5895 z m -38.11633,-16.2248 v 38.1163 h -81.60708 v 228.698 h 81.60708 v 38.1164 H 248.88253 v -304.9307 z"
     id="path1-5"
     style="stroke-width:0.635272" />
</svg>
