<svg height="24" viewBox="0 -960 960 960" width="24" version="1.1" xmlns="http://www.w3.org/2000/svg" xmlns:svg="http://www.w3.org/2000/svg"><path fill="#ffffff" d="m 743.11379,-210.30602 c 2.63379,0 5.04524,-1.0974 7.23436,-3.29223 2.19483,-2.18913 3.29224,-4.60059 3.29224,-7.23437 V -541.8299 c 0,-2.63379 -1.09741,-5.04524 -3.29224,-7.23437 -2.18912,-2.19482 -4.60057,-3.29223 -7.23436,-3.29223 H 216.88621 c -2.63379,0 -5.04524,1.09741 -7.23436,3.29223 -2.19483,2.18913 -3.29224,4.60058 -3.29224,7.23437 v 6.04345 160.54216 h -51.30757 v -159.40841 -7.1772 c 0,-17.27926 5.98588,-31.90476 17.95765,-43.87652 11.97177,-11.97177 26.59727,-17.95766 43.87652,-17.95766 h 526.22758 c 17.27925,0 31.90475,5.98589 43.87652,17.95766 11.97177,11.97176 17.95765,26.59726 17.95765,43.87652 v 320.99728 c 0,17.27925 -5.98588,31.90476 -17.95765,43.87653 -11.97177,11.97176 -26.59727,17.95765 -43.87652,17.95765 H 389.18357 v -51.30758 z M 214.91088,-651.02096 v -51.30758 h 530.17824 v 51.30758 z m 102.61514,-98.67302 v -51.30758 h 324.94796 v 51.30758 z" style="stroke-width:0.855127" /><path d="m 231.5903,-149.86765 262.37387,-261.27738 -37.20499,-37.20499 -225.16888,225.16888 -102.8928,-102.8928 -36.52517,36.53613 z" style="stroke-width:1.09648" /></svg>