<?xml version="1.0" encoding="UTF-8" standalone="no"?>
<svg
   height="24"
   viewBox="0 -960 960 960"
   width="24"
   fill="#e8eaed"
   version="1.1"
   id="svg1"
   xmlns="http://www.w3.org/2000/svg"
   xmlns:svg="http://www.w3.org/2000/svg">
  <defs
     id="defs1" />
  <path
     d="m 743.11379,-210.30602 c 2.63379,0 5.04524,-1.0974 7.23436,-3.29223 2.19483,-2.18913 3.29224,-4.60059 3.29224,-7.23437 V -541.8299 c 0,-2.63379 -1.09741,-5.04524 -3.29224,-7.23437 -2.18912,-2.19482 -4.60057,-3.29223 -7.23436,-3.29223 H 216.88621 c -2.63379,0 -5.04524,1.09741 -7.23436,3.29223 -2.19483,2.18913 -3.29224,4.60058 -3.29224,7.23437 v 6.04345 82.50915 h -51.30757 v -81.3754 -7.1772 c 0,-17.27926 5.98588,-31.90476 17.95765,-43.87652 11.97177,-11.97177 26.59727,-17.95766 43.87652,-17.95766 h 526.22758 c 17.27925,0 31.90475,5.98589 43.87652,17.95766 11.97177,11.97176 17.95765,26.59726 17.95765,43.87652 v 320.99728 c 0,17.27925 -5.98588,31.90476 -17.95765,43.87653 -11.97177,11.97176 -26.59727,17.95765 -43.87652,17.95765 H 543.65226 l 21.69248,-51.30758 z M 214.91088,-651.02096 v -51.30758 h 530.17824 v 51.30758 z m 102.61514,-98.67302 v -51.30758 h 324.94796 v 51.30758 z"
     id="path1"
     style="stroke-width:0.855127" />
  <path
     d="M 444.37543,-104.40272 H 212.34209 v -291.14271 l 137.86733,-138.26669 39.7058,34.32667 c 3.70421,3.2036 6.77024,7.76206 9.19809,13.67535 2.42786,5.91329 3.64179,11.82659 3.64179,17.73988 v 1.56528 l -21.33043,70.95951 h 127.46227 c 16.99496,0 32.16904,6.69593 45.52222,20.0878 13.35319,13.39186 20.02979,28.60991 20.02979,45.65411 v 9.91346 c 0,3.28014 -0.34684,6.79682 -1.04051,10.55002 -0.69367,3.74971 -1.73418,7.01593 -3.12151,9.79866 l -65.55204,156.00658 c -4.8557,11.13091 -13.09305,20.43564 -24.71206,27.91422 -11.61902,7.47857 -23.49814,11.21786 -35.6374,11.21786 z m -180.25578,-53.24191 h 183.0386 l 66.65882,-163.51639 v -21.1425 H 311.75173 l 22.94812,-91.80999 -70.5802,70.75906 z m 0,-205.70982 v 205.70982 z m -51.77756,-32.19098 v 53.24191 h -58.80262 v 184.65889 h 58.80262 v 53.24191 H 100.48746 v -291.14271 z"
     id="path1-1"
     style="stroke-width:0.521762" />
</svg>
