<svg height="24" viewBox="0 -960 960 960" width="24" version="1.1" xmlns="http://www.w3.org/2000/svg" xmlns:svg="http://www.w3.org/2000/svg"><path fill="#ffffff" d="m 767.44724,-185.36401 c 2.87737,0 5.51184,-1.1989 7.90342,-3.59671 2.39781,-2.39158 3.59671,-5.02606 3.59671,-7.90342 v -350.68395 c 0,-2.87737 -1.1989,-5.51184 -3.59671,-7.90342 -2.39158,-2.39781 -5.02605,-3.59671 -7.90342,-3.59671 H 192.55276 c -2.87737,0 -5.51184,1.1989 -7.90342,3.59671 -2.39781,2.39158 -3.59671,5.02605 -3.59671,7.90342 v 6.60236 90.13981 H 125 v -88.9012 -7.84097 c 0,-18.87729 6.53947,-34.8554 19.61842,-47.93434 13.07895,-13.07895 29.05706,-19.61843 47.93434,-19.61843 h 574.89448 c 18.87728,0 34.85539,6.53948 47.93434,19.61843 C 828.46053,-582.40349 835,-566.42538 835,-547.54809 v 350.68395 c 0,18.87728 -6.53947,34.85539 -19.61842,47.93434 -13.07895,13.07894 -29.05706,19.61842 -47.93434,19.61842 H 549.53899 l 23.69866,-56.05263 z m -577.0525,-481.47342 v -56.05264 h 579.21052 v 56.05264 z M 302.5,-774.63599 v -56.05263 h 355 v 56.05263 z" style="stroke-width:0.934211" /><path fill="#ffffff" d="M 444.37543,-104.40272 H 212.34209 v -291.14271 l 137.86733,-138.26669 39.7058,34.32667 c 3.70421,3.2036 6.77024,7.76206 9.19809,13.67535 2.42786,5.91329 3.64179,11.82659 3.64179,17.73988 v 1.56528 l -21.33043,70.95951 h 127.46227 c 16.99496,0 32.16904,6.69593 45.52222,20.0878 13.35319,13.39186 20.02979,28.60991 20.02979,45.65411 v 9.91346 c 0,3.28014 -0.34684,6.79682 -1.04051,10.55002 -0.69367,3.74971 -1.73418,7.01593 -3.12151,9.79866 l -65.55204,156.00658 c -4.8557,11.13091 -13.09305,20.43564 -24.71206,27.91422 -11.61902,7.47857 -23.49814,11.21786 -35.6374,11.21786 z M 270.0903,-170.14463 h 174.28513 l 63.47099,-149.74543 v -9.91346 H 307.02834 l 21.85067,-89.22116 -58.78871,58.95901 z m 0,-189.92104 v 189.92104 z m -57.74821,-35.47976 v 65.74191 h -46.30262 v 159.65889 h 46.30262 v 65.74191 H 100.48746 v -291.14271 z" style="stroke-width:0.521762" /></svg>