<?xml version="1.0" encoding="UTF-8" standalone="no"?>
<svg
   height="24"
   viewBox="0 -960 960 960"
   width="24"
   fill="#e8eaed"
   version="1.1"
   id="svg1"
   xmlns="http://www.w3.org/2000/svg"
   xmlns:svg="http://www.w3.org/2000/svg">
  <defs
     id="defs1" />
  <path
     d="m 520.92907,-327.82878 34.9134,38.1164 H 368.60595 v -189.50038 l 38.11633,38.15053 v 113.23345 z m -233.9302,-228.698 v 228.698 h 81.60708 v 38.1164 H 248.88253 v -304.9307 z"
     id="path1-5"
     style="stroke-width:0.635272" />
  <path
     d="M 645.68629,-334.18148 718.98401,-505.705 v -43.0016 c 0,-2.2827 -0.73268,-4.1568 -2.19804,-5.6222 -1.46537,-1.4653 -3.33942,-2.198 -5.62217,-2.198 H 492.73179 l 31.85891,-139.2707 -116.2955,115.81281 -28.93858,-25.3463 157.84424,-156.92241 21.49761,21.4977 c 2.6385,2.6385 4.83019,6.1324 6.57507,10.482 1.74064,4.3494 2.61096,8.447 2.61096,12.2925 v 6.448 l -26.97366,116.8901 H 711.1638 c 12.08712,0 22.76394,4.6354 32.03043,13.9061 9.27075,9.2665 13.90612,19.9433 13.90612,32.0304 v 41.0449 c 0,2.6385 -0.34305,5.4888 -1.02914,8.5508 -0.68186,3.062 -1.44631,5.9144 -2.29333,8.5571 l -77.84207,183.75752 z"
     id="path1-5-4"
     style="stroke-width:0.635272" />
  <path
     d="m 829.77231,-42.419903 -129.15,-129.149987 c -31.48667,23.12667 -65.92333,40.99999 -103.31,53.61998 -37.38667,12.61333 -77.13,18.920007 -119.23,18.920007 -52.56667,0 -101.96667,-9.976677 -148.2,-29.929997 -46.23333,-19.94666 -86.45,-47.01999 -120.65,-81.21999 -34.2,-34.2 -61.27332,-74.41667 -81.21999,-120.65 -19.95332,-46.23333 -29.929987,-95.63333 -29.929987,-148.2 0,-42.1 6.306667,-81.84333 18.919997,-119.23 12.61999,-37.38667 30.49332,-71.82333 53.61998,-103.31 l -121.309977,-121.31 42.77,-42.76 780.459977,780.459991 z m -351.69,-116.609987 c 33.59333,0 65.36333,-5.02667 95.31,-15.08 29.94667,-10.04667 57.69,-23.86667 83.23,-41.46 l -442,-442 c -17.59333,25.54 -31.41333,53.28333 -41.46,83.23 -10.05333,29.94667 -15.08,61.71667 -15.08,95.31 0,88.66667 31.16667,164.16667 93.5,226.5 62.33333,62.33333 137.83333,93.5 226.5,93.5 z m 320,-113.85 -44.38,-44.38 c 14.25333,-23.59333 25.21333,-48.93 32.88,-76.01 7.66667,-27.08 11.5,-55.66667 11.5,-85.76 0,-88.66667 -31.16667,-164.16667 -93.5,-226.5 -62.33333,-62.33333 -137.83333,-93.5 -226.5,-93.5 -30,0 -58.56333,3.83333 -85.69,11.5 -27.12667,7.66667 -52.48667,18.62667 -76.08,32.88 l -44.38,-44.38 c 29.98667,-19.07333 62.31333,-33.84333 96.98,-44.31 34.67333,-10.46 71.06333,-15.69 109.17,-15.69 52.56667,0 101.96667,9.97667 148.2,29.93 46.23333,19.94667 86.45,47.02 120.65,81.22 34.2,34.2 61.27333,74.41667 81.22,120.65 19.95333,46.23333 29.93,95.63333 29.93,148.2 0,38.10667 -5.23,74.49667 -15.69,109.17 -10.46667,34.66667 -25.23667,66.99333 -44.31,96.98 z"
     id="path1-4" />
</svg>
