<svg height="24" viewBox="0 -960 960 960" width="24" version="1.1" xmlns="http://www.w3.org/2000/svg" xmlns:svg="http://www.w3.org/2000/svg"><path fill="#ffffff" d="m 284.25714,-242.31294 q -26.75385,0 -38.03213,-23.87574 -11.27899,-23.87573 5.44514,-44.41755 l 158.42239,-192.51659 v -172.62004 h -33.34061 q -8.91329,0 -14.94286,-6.03237 -6.02958,-6.03168 -6.02958,-14.94916 0,-8.91679 6.02958,-14.93938 6.02957,-6.02329 14.94286,-6.02329 h 206.49614 q 8.91329,0 14.94286,6.03238 6.02958,6.03238 6.02958,14.94916 0,8.91749 -6.02958,14.94008 -6.02957,6.02258 -14.94286,6.02258 h -33.34061 v 172.62004 l 158.42239,192.51659 q 16.72413,20.54182 5.44514,44.41755 -11.27828,23.87574 -38.03213,23.87574 z m 0,-41.9442 H 675.74286 L 507.96327,-488.38898 v -187.35388 h -55.92654 v 187.35388 z M 480,-480 Z" style="stroke-width:0.699082" /></svg>
