<svg height="24" viewBox="0 -960 960 960" width="24" version="1.1" xmlns="http://www.w3.org/2000/svg" xmlns:svg="http://www.w3.org/2000/svg"><path fill="#ffffff" d="M 473.61554,-183.85725 656.14753,-539.22863 H 494.61468 V -779.21875 L 305.39147,-419.23356 H 473.61554 Z M 480.134,-120 c -49.782,0 -96.58533,-9.44633 -140.41,-28.339 -43.82467,-18.89333 -81.94633,-44.534 -114.365,-76.922 -32.418,-32.388 -58.08233,-70.47367 -76.993,-114.257 C 129.45533,-383.302 120,-430.08467 120,-479.866 c 0,-49.782 9.44633,-96.58533 28.339,-140.41 18.89333,-43.82467 44.534,-81.94633 76.922,-114.365 32.388,-32.418 70.47367,-58.08233 114.257,-76.993 43.784,-18.91067 90.56667,-28.366 140.348,-28.366 49.782,0 96.58533,9.44633 140.41,28.339 43.82467,18.89333 81.94633,44.534 114.365,76.922 32.418,32.388 58.08233,70.47367 76.993,114.257 18.91067,43.784 28.366,90.56667 28.366,140.348 0,49.782 -9.44633,96.58533 -28.339,140.41 -18.89333,43.82467 -44.534,81.94633 -76.922,114.365 -32.388,32.418 -70.47367,58.08233 -114.257,76.993 C 576.698,-129.45533 529.91533,-120 480.134,-120 Z M 480,-160 c 89.33333,0 165,-31 227,-93 62,-62 93,-137.66667 93,-227 0,-89.33333 -31,-165 -93,-227 -62,-62 -137.66667,-93 -227,-93 -89.33333,0 -165,31 -227,93 -62,62 -93,137.66667 -93,227 0,89.33333 31,165 93,227 62,62 137.66667,93 227,93 z" /></svg>