<svg height="24" viewBox="0 -960 960 960" width="24" version="1.1" id="svg1" xml:space="preserve" xmlns="http://www.w3.org/2000/svg" xmlns:svg="http://www.w3.org/2000/svg"><path fill="#ffffff" d="M 362.31,-260.001 V -320 h -260 v 59.999 z m 0,-379.999 v -59.999 h -260 V -640 Z m 0,189.999 v -59.998 h -260 v 59.998 z M 817.69,-640 h 40 v -59.999 H 703.08 v -43.846 H 572.31 v 43.846 H 417.69 V -640 h 40 v 351.535 c 0,20.20667 7,37.31 21,51.31 14,14 31.10333,21 51.31,21 h 215.38 c 20.20667,0 37.31,-7 51.31,-21 14,-14 21,-31.10333 21,-51.31 z m -60,0 v 351.535 c 0,3.08 -1.28,5.9 -3.84,8.46 -2.56667,2.56667 -5.39,3.85 -8.47,3.85 H 530 c -3.07333,0 -5.89333,-1.28333 -8.46,-3.85 -2.56667,-2.56 -3.85,-5.38 -3.85,-8.46 V -640 Z m 0,0 v 363.845 z" /></svg>