<svg width="48" height="48" viewBox="0 -960 960 960" version="1.1" xmlns="http://www.w3.org/2000/svg" xmlns:svg="http://www.w3.org/2000/svg"><path fill="#ffffff" d="m 479.9744,-279.27428 c 11.2844,0 20.56402,-3.62889 27.83885,-10.88666 7.27483,-7.25872 10.91227,-16.53027 10.91227,-27.81467 0,-11.28441 -3.62889,-20.56401 -10.88667,-27.83886 -7.25777,-7.27483 -16.52885,-10.91225 -27.81325,-10.91225 -11.2844,0 -20.56402,3.62935 -27.83885,10.88808 -7.27483,7.25777 -10.91227,16.52885 -10.91227,27.81325 0,11.28441 3.62889,20.56401 10.88667,27.83886 7.25777,7.27483 16.52885,10.91225 27.81325,10.91225 z M 453.79114,-431.846 h 56.87872 v -249.538 h -56.87872 z m 26.50962,295.05868 c -47.5411,0 -92.06764,-9.00785 -133.57963,-27.02355 -41.51198,-18.0157 -77.86703,-42.61569 -109.06515,-73.79995 -31.19871,-31.18487 -55.80984,-67.54655 -73.83337,-109.08502 -18.02353,-41.53848 -27.03529,-86.10356 -27.03529,-133.69524 0,-47.36047 9.00785,-91.87708 27.02355,-133.54983 18.0157,-41.67275 42.61569,-77.95765 73.79995,-108.8547 31.18487,-30.89766 67.54655,-55.35825 109.08502,-73.38178 41.53848,-18.02353 86.10356,-27.03529 133.69524,-27.03529 47.36047,0 91.87708,9.00785 133.54983,27.02355 41.67275,18.0157 77.95765,42.46516 108.8547,73.34836 30.89766,30.8838 55.35825,67.20092 73.38178,108.95134 18.02353,41.74983 27.03529,86.27938 27.03529,133.58867 0,47.5411 -9.00785,92.06764 -27.02355,133.57963 -18.0157,41.51198 -42.46516,77.81164 -73.34836,108.89896 -30.8838,31.08732 -67.20092,55.69814 -108.95134,73.83247 -41.74983,18.13492 -86.27938,27.20238 -133.58867,27.20238 z m 0.15084,-40.99054 c 83.81155,0 155.05968,-29.43478 213.74439,-88.30434 58.6841,-58.86956 88.02615,-130.32602 88.02615,-214.3694 0,-83.81155 -29.28575,-155.05968 -87.85726,-213.74439 -58.5715,-58.6841 -130.02646,-88.02615 -214.36488,-88.02615 -83.74231,0 -155.04824,29.28575 -213.9178,87.85726 -58.86956,58.5715 -88.30434,130.02646 -88.30434,214.36488 0,83.74231 29.43478,155.04824 88.30434,213.9178 58.86956,58.86956 130.32602,88.30434 214.3694,88.30434 z" /></svg>