<svg height="24" viewBox="0 -960 960 960" width="24" version="1.1" xml:space="preserve" xmlns="http://www.w3.org/2000/svg" xmlns:svg="http://www.w3.org/2000/svg"><path fill="#ffffff" d="m 480,-183.00679 q -61.08229,0 -115.27978,-23.4172 -54.19827,-23.41642 -94.53944,-63.75679 -40.34037,-40.34117 -63.75679,-94.53944 -23.4172,-54.19749 -23.4172,-115.27978 0,-61.56294 23.4172,-115.5205 23.41642,-53.95755 63.75679,-94.29872 40.34117,-40.34037 94.53944,-63.75679 54.19749,-23.4172 115.27978,-23.4172 61.56294,0 115.5205,23.4172 53.95755,23.41642 94.29872,63.75679 40.34037,40.34117 63.75679,94.29872 23.4172,53.95756 23.4172,115.5205 0,61.08229 -23.4172,115.27978 -23.41642,54.19827 -63.75679,94.53944 -40.34117,40.34037 -94.29872,63.75679 -53.95756,23.4172 -115.5205,23.4172 z m 0,-47.55422 q 23.92833,-31.74396 40.28098,-64.02877 16.35265,-32.28481 26.63333,-70.5814 H 413.08569 q 10.8817,39.49942 26.93423,71.78423 16.05175,32.2848 39.98008,62.82594 z m -60.53988,-8.59719 q -17.97596,-25.79158 -32.28481,-58.64771 -14.30886,-32.85613 -22.24485,-67.36527 H 258.87704 q 24.77008,48.69841 66.43364,81.82497 41.66435,33.12655 94.14944,44.18801 z m 121.07976,0 q 52.48509,-11.06146 94.14944,-44.18801 41.66356,-33.12656 66.43364,-81.82497 H 595.06954 q -9.43894,34.81003 -23.74779,67.66617 -14.30887,32.85613 -30.78187,58.34681 z M 239.21837,-412.06341 h 116.21297 q -2.94571,-17.43511 -4.26811,-34.17853 -1.32241,-16.74421 -1.32241,-33.75806 0,-17.01385 1.32241,-33.75806 1.3224,-16.74342 4.26811,-34.17853 H 239.21837 q -4.50883,15.93216 -6.9137,33.12655 -2.40487,17.19438 -2.40487,34.81004 0,17.61566 2.40487,34.81004 2.40487,17.19439 6.9137,33.12655 z m 163.10598,0 h 155.3513 q 2.94571,-17.43511 4.2689,-33.87841 1.3224,-16.44252 1.3224,-34.05818 0,-17.61566 -1.3224,-34.05818 -1.32319,-16.4433 -4.2689,-33.87841 h -155.3513 q -2.94571,17.43511 -4.2689,33.87841 -1.3224,16.44252 -1.3224,34.05818 0,17.61566 1.3224,34.05818 1.32319,16.4433 4.2689,33.87841 z m 202.24431,0 h 116.21297 q 4.50883,-15.93216 6.9137,-33.12655 2.40487,-17.19438 2.40487,-34.81004 0,-17.61566 -2.40487,-34.81004 -2.40487,-17.19439 -6.9137,-33.12655 H 604.56866 q 2.94571,17.43511 4.26811,34.17853 1.32241,16.74421 1.32241,33.75806 0,17.01385 -1.32241,33.75806 -1.3224,16.74342 -4.26811,34.17853 z m -9.49912,-182.76541 h 106.05342 q -25.07098,-49.29943 -65.98268,-81.82497 -40.91249,-32.52475 -94.6004,-44.48892 17.97596,27.29454 31.98391,59.6997 14.00874,32.40518 22.54575,66.61419 z m -181.98385,0 h 133.82862 q -10.8817,-39.19852 -27.38519,-72.23519 -16.50271,-33.03588 -39.52912,-62.37498 -23.02641,29.3391 -39.52912,62.37498 -16.50349,33.03667 -27.38519,72.23519 z m -154.20865,0 h 106.05342 q 8.53701,-34.20901 22.54575,-66.61419 14.00795,-32.40516 31.98391,-59.6997 -53.98804,11.96417 -94.75046,44.63977 -40.76164,32.67559 -65.83262,81.67412 z" style="stroke-width:0.781563"/></svg>