<svg height="24" viewBox="0 -960 960 960" width="24" version="1.1" xmlns="http://www.w3.org/2000/svg" xmlns:svg="http://www.w3.org/2000/svg"><path fill="#ffffff" d="m 477.86205,-223.44616 q 22.44847,0 37.94859,-15.50013 15.50013,-15.50013 15.50013,-37.94859 0,-22.44845 -15.50013,-37.94858 -15.50012,-15.50013 -37.94859,-15.50013 -22.44846,0 -37.94859,15.50013 -15.50013,15.50013 -15.50013,37.94858 0,22.44846 15.50013,37.94859 15.50013,15.50013 37.94859,15.50013 z m -38.48307,-164.62205 h 79.10409 q 0,-35.27616 8.01731,-55.58665 8.01731,-20.31053 45.43141,-55.58667 27.79333,-27.79334 43.82796,-52.91424 16.03461,-25.1209 16.03461,-60.39705 0,-59.86256 -43.82795,-91.93179 -43.82795,-32.06923 -103.6905,-32.06923 -60.93154,0 -98.88013,32.06923 -37.9486,32.06923 -52.91424,76.96615 l 70.5523,27.79334 q 5.34488,-19.24155 24.05193,-41.69 18.70705,-22.44847 57.19014,-22.44847 34.20716,0 51.31076,18.70705 17.10358,18.70705 17.10358,41.15552 0,21.37949 -12.82769,40.08654 -12.82769,18.70705 -32.06923,34.74167 -47.03486,41.68999 -57.72461,63.06948 -10.68974,21.37949 -10.68974,78.03512 z M 480,-52.410262 q -88.72486,0 -166.76,-33.672694 Q 235.20487,-119.75565 177.48026,-177.48026 119.75565,-235.20487 86.082956,-313.24 52.410262,-391.27514 52.410262,-480 q 0,-88.72486 33.672694,-166.76 33.672694,-78.03513 91.397304,-135.75974 57.72461,-57.72461 135.75974,-91.3973 78.03514,-33.6727 166.76,-33.6727 88.72486,0 166.76,33.6727 78.03513,33.67269 135.75974,91.3973 57.72461,57.72461 91.3973,135.75974 33.6727,78.03514 33.6727,166.76 0,88.72486 -33.6727,166.76 -33.67269,78.03513 -91.3973,135.75974 Q 724.79513,-119.75565 646.76,-86.082956 568.72486,-52.410262 480,-52.410262 Z m 0,-85.517948 q 143.24256,0 242.65718,-99.41461 99.41461,-99.41462 99.41461,-242.65718 0,-143.24256 -99.41461,-242.65718 Q 623.24256,-822.07179 480,-822.07179 q -143.24256,0 -242.65718,99.41461 -99.41461,99.41462 -99.41461,242.65718 0,143.24256 99.41461,242.65718 99.41462,99.41461 242.65718,99.41461 z M 480,-480 Z" style="stroke-width:1.06897" /></svg>