<svg height="24" viewBox="0 -960 960 960" width="24" version="1.1" xmlns="http://www.w3.org/2000/svg" xmlns:svg="http://www.w3.org/2000/svg"><path fill="#ffffff" d="m 224.60938,-800 c -18.40997,0 -33.76045,6.18234 -46.09376,18.51562 C 166.18234,-769.15107 160,-753.80059 160,-735.39062 v 510.78124 c 0,18.40997 6.18234,33.76045 18.51562,46.09376 C 190.84893,-166.18234 206.19941,-160 224.60938,-160 h 510.78124 c 18.40997,0 33.76045,-6.18234 46.09376,-18.51562 C 793.81766,-190.84893 800,-206.19941 800,-224.60938 v -510.78124 c 0,-18.40997 -6.18234,-33.76045 -18.51562,-46.09376 C 769.15107,-793.81766 753.80059,-800 735.39062,-800 Z m 96.17187,60.78125 h 43.4375 l 85.15625,227.5 h -49.84375 l -15.78125,-46.875 h -82.1875 l -15.625,46.875 h -49.84375 z m 149.84375,0 h 61.25 l 58.4375,165 58.125,-165 H 710 v 227.5 h -47.03125 v -62.1875 L 667.65625,-681.25 606.25,-511.71875 h -32.1875 l -61.25,-169.375 4.6875,107.1875 v 62.1875 h -46.875 z m 82.42188,288.4375 L 666.17188,-300 H 300 l 78.4375,-103.04688 70,84.60938 z" /><path fill="#ffffff" style="stroke-width:40" d="m 314.21875,-596.59753 h 56.875 L 342.5,-681.75378 Z" /></svg>