<svg height="24" viewBox="0 -960 960 960" width="24" version="1.1" xmlns="http://www.w3.org/2000/svg" xmlns:svg="http://www.w3.org/2000/svg"><path fill="#ffffff" d="m 224.60938,-800 c -18.40997,0 -33.76045,6.18234 -46.09376,18.51562 C 166.18234,-769.15107 160,-753.80059 160,-735.39062 v 510.78124 c 0,18.40997 6.18234,33.76045 18.51562,46.09376 C 190.84893,-166.18234 206.19941,-160 224.60938,-160 h 510.78124 c 18.40997,0 33.76045,-6.18234 46.09376,-18.51562 C 793.81766,-190.84893 800,-206.19941 800,-224.60938 v -510.78124 c 0,-18.40997 -6.18234,-33.76045 -18.51562,-46.09376 C 769.15107,-793.81766 753.80059,-800 735.39062,-800 Z m 59.29687,60.78125 h 51.40625 l 47.03125,102.5 47.34375,-102.5 h 51.25 l -74.6875,145 v 82.5 h -47.65625 v -82.5 z m 206.40625,0 H 675.625 V -701.25 h -69.6875 v 189.53125 h -46.875 V -701.25 h -68.75 z m 62.73438,288.4375 L 666.17188,-300 H 300 l 78.4375,-103.04688 70,84.60938 z" /></svg>