<svg xmlns="http://www.w3.org/2000/svg" height="24" viewBox="0 -960 960 960" width="24"><path fill="#ffffff" d="M755.384-315.847 710-362.461q40.385-11 65.192-43.27Q800-438 800-480q0-50.385-35.385-85.962-35.384-35.577-85.384-35.577H526.924v-59.998h152.307q74.922 0 127.845 53.115T859.999-480q0 53.154-28.539 97.115-28.538 43.961-76.076 67.038ZM623.23-450.001l-59.999-59.998h65.999v59.998h-6ZM805.847-69.847l-736-736L112-848l736 736-42.153 42.153ZM433.076-298.463H281.539q-75.308 0-128.423-53.115Q100.001-404.693 100.001-480q0-66.692 42.962-117.038 42.962-50.346 107.808-60.807h9.231l56.307 56.306h-34.77q-50.385 0-85.962 35.577Q160-530.385 160-480q0 50.385 35.577 85.962 35.577 35.577 85.962 35.577h151.537v59.998ZM330.77-450.001v-59.998h77.693l58.999 59.998H330.77Z"/></svg>