<svg height="24" viewBox="0 -960 960 960" width="24" version="1.1" xmlns="http://www.w3.org/2000/svg" xmlns:svg="http://www.w3.org/2000/svg"><path fill="#ffffff" d="m 442.12268,-240.10353 h 75.75464 v -202.01915 h 202.01915 v -75.75464 H 517.87732 v -202.01915 h -75.75464 v 202.01915 H 240.10353 v 75.75464 h 202.01915 z m 37.96191,239.89772043 q -99.53988,0 -187.12527,-37.77757643 Q 205.37265,-75.760962 140.58386,-140.52073 75.793795,-205.28174 37.999794,-292.82926 0.20580957,-380.37551 0.20580957,-479.91541 q 0,-99.53988 37.77757643,-187.12527 37.777576,-87.58667 102.537344,-152.37546 64.76101,-64.79007 152.30853,-102.58407 87.54625,-37.79398 187.08615,-37.79398 99.53988,0 187.12527,37.77758 87.58667,37.77757 152.37546,102.53734 64.79007,64.76101 102.58407,152.30853 37.79398,87.54625 37.79398,187.08615 0,99.53988 -37.77758,187.12527 -37.77757,87.58667 -102.53734,152.37546 -64.76101,64.790065 -152.30853,102.584066 -87.54625,37.79398443 -187.08615,37.79398443 z M 480,-75.961723 q 169.19104,0 286.61466,-117.423617 Q 884.03828,-310.80896 884.03828,-480 q 0,-169.19104 -117.42362,-286.61466 Q 649.19104,-884.03828 480,-884.03828 q -169.19104,0 -286.61466,117.42362 Q 75.961723,-649.19104 75.961723,-480 q 0,169.19104 117.423617,286.61466 Q 310.80896,-75.961723 480,-75.961723 Z M 480,-480 Z" style="stroke-width:1.26262" /></svg>