<svg height="24" viewBox="0 -960 960 960" width="24" version="1.1" xmlns="http://www.w3.org/2000/svg" xmlns:svg="http://www.w3.org/2000/svg"><path fill="#ffffff" d="m 442.5174,-242.60352 h 74.9652 V -442.5174 h 199.91388 v -74.9652 H 517.4826 V -717.39648 H 442.5174 V -517.4826 H 242.60352 v 74.9652 H 442.5174 Z m 37.56631,237.3977104 c -65.66838,0 -127.39345,-12.4612974 -185.17521,-37.3838914 C 237.12588,-67.512295 186.86337,-101.33522 144.12096,-144.05849 101.37771,-186.78257 67.539368,-237.02301 42.605938,-294.77979 17.672519,-352.53574 5.2058096,-414.2479 5.2058096,-479.91629 c 0,-65.66838 12.4612974,-127.39345 37.3838914,-185.17521 24.922594,-57.78262 58.745519,-108.04513 101.468789,-150.78754 42.72408,-42.74325 92.96452,-76.5816 150.7213,-101.51503 57.75595,-24.93341 119.46811,-37.40012 185.1365,-37.40012 65.66838,0 127.39345,12.4613 185.17521,37.38389 57.78262,24.92259 108.04513,58.74552 150.78754,101.46879 42.74325,42.72408 76.5816,92.96452 101.51503,150.7213 24.93341,57.75595 37.40012,119.46811 37.40012,185.1365 0,65.66838 -12.4613,127.39345 -37.38389,185.17521 -24.92259,57.78262 -58.74552,108.04513 -101.46879,150.78754 -42.72408,42.74325 -92.96452,76.581592 -150.7213,101.515022 -57.75595,24.933419 -119.46811,37.4001284 -185.1365,37.4001284 z M 480,-80.17226 c 111.61858,0 206.16119,-38.73331 283.62781,-116.19993 77.46662,-77.46662 116.19993,-172.00923 116.19993,-283.62781 0,-111.61858 -38.73331,-206.16119 -116.19993,-283.62781 C 686.16119,-841.09443 591.61858,-879.82774 480,-879.82774 c -111.61858,0 -206.16119,38.73331 -283.62781,116.19993 C 118.90557,-686.16119 80.17226,-591.61858 80.17226,-480 c 0,111.61858 38.73331,206.16119 116.19993,283.62781 C 273.83881,-118.90557 368.38142,-80.17226 480,-80.17226 Z" style="stroke-width:1.26262" /></svg>