<svg height="24" viewBox="0 -960 960 960" width="24" version="1.1" xml:space="preserve" xmlns="http://www.w3.org/2000/svg" xmlns:svg="http://www.w3.org/2000/svg"><path fill="#ffffff" d="m 480.42614,-183.60711 q -124.64969,0 -211.1603,-86.10108 -86.5106,-86.10213 -86.5106,-210.16267 0,-124.06054 86.5106,-210.29181 86.51061,-86.23022 211.1603,-86.23022 75.80828,0 141.96564,35.86777 66.15842,35.86883 106.63848,100.11411 v -135.98188 h 42.52441 v 221.48065 H 549.11902 v -42.34184 h 157.34034 q -33.202,-63.34975 -93.4304,-100.07389 -60.22945,-36.72308 -132.60282,-36.72308 -106.31104,0 -180.72876,74.09823 -74.41773,74.09822 -74.41773,179.95282 0,105.8546 74.41773,179.95282 74.41772,74.09823 180.72876,74.09823 81.8595,0 147.77235,-46.57602 65.91284,-46.57603 92.4906,-122.79135 h 45.14179 q -28.13202,95.10613 -106.88405,153.40767 -78.75202,58.30154 -178.52069,58.30154 z" style="stroke-width:1.06083"/></svg>