<svg height="24" viewBox="0 -960 960 960" width="24" fill="#ffffff" xmlns="http://www.w3.org/2000/svg" xmlns:svg="http://www.w3.org/2000/svg"><path d="m 665.375,-356.15887 c 3.13219,-2.22557 4.92254,-3.39974 8.18358,-6.5099 46.04231,-43.91212 73.77946,-98.12363 83.21142,-162.63453 H 818 c -7.29301,64.31016 -33.77448,121.02623 -70.3911,169.14443 z m -446.91182,0 c -17.92672,-22.07466 -39.1615,-48.47155 -51.30318,-76.53443 -17.84667,-41.22667 -26.77,-85.43 -26.77,-132.61 0,-47.18 8.92333,-91.38333 26.77,-132.61 17.84,-41.23333 42.09333,-77.18333 72.76,-107.85 30.66667,-30.66667 66.61667,-54.92333 107.85,-72.77 41.23333,-17.84667 85.43667,-26.77 132.61,-26.77 50.31333,0 98.11,10.57667 143.39,31.73 45.28,21.15333 84.15,50.88333 116.61,89.19 v -94.77 h 60 v 203.08 H 597.31 v -60 h 104.61 c -27.58667,-34 -60.48333,-60.70333 -98.69,-80.11 -38.20667,-19.41333 -80.09417,-36.77625 -123.7875,-36.77625 -78,0 -144.16667,27.16667 -198.5,81.5 -54.33333,54.33333 -81.5,120.5 -81.5,198.5 0,78 29.98193,141.49027 81.5,198.5 4.14592,4.58786 11.47162,13.91745 16.46585,18.30068 z M 599.31,-404.2233 450.39,-553.1533 v -212.15 h 59.99 v 187.85 l 131.08,131.07 z" /></svg>