<svg height="24" viewBox="0 -960 960 960" width="24" version="1.1" xmlns="http://www.w3.org/2000/svg" xmlns:svg="http://www.w3.org/2000/svg"><path fill="#ffffff" d="m 422.83669,-216.2679 221.85146,-265.79307 h -171.4794 l 31.08065,-243.28639 -198.27305,286.15624 h 148.97271 z m -59.85274,115.08946 42.86985,-295.14283 H 223.65586 l 320.70078,-462.50029 h 19.78549 l -42.04461,333.89075 h 214.34926 l -353.67733,423.75237 z m 112.3683,-370.16507 z" style="stroke-width:1.07175" /><path fill="#ffffff" d="M 135.38804,-163.81751 C 94.492259,-204.90541 62.434579,-252.44271 39.214979,-306.42937 15.996203,-360.41603 4.3868166,-418.27291 4.3868166,-480 c 0,-61.91755 11.6093864,-119.87008 34.8281624,-173.85757 23.2196,-53.98667 55.27728,-101.42831 96.173061,-142.32492 l 35.45049,35.45049 c -36.43718,36.43719 -65.00725,78.67121 -85.710211,126.70205 -20.70295,48.03085 -31.05442,99.37416 -31.05442,154.02995 0,55.48391 10.35147,107.24128 31.05442,155.27212 20.702961,48.03085 49.273031,89.8508 85.710211,125.45988 z m 60.366,-140.366 c -22.67718,-22.86931 -40.44984,-49.28959 -53.31796,-79.26083 -12.8673,-29.97125 -19.30095,-62.15646 -19.30095,-96.55566 0,-34.58966 6.43365,-66.87052 19.30095,-96.8426 12.86812,-29.97125 30.64078,-56.29587 53.31796,-78.97389 l 35.45049,35.45049 c -18.2186,18.2186 -32.50363,39.33561 -42.8551,63.35103 -10.35148,24.01541 -15.52722,49.68708 -15.52722,77.01497 0,27.32789 5.17574,52.99956 15.52722,77.01497 10.35147,24.01542 24.6365,45.13243 42.8551,63.35103 z m 568.49192,0 -35.45049,-35.45049 c 18.2186,-18.2186 32.50363,-39.33561 42.8551,-63.35103 10.35148,-24.01541 15.52722,-49.68708 15.52722,-77.01497 0,-27.32789 -5.17574,-52.99956 -15.52722,-77.01497 -10.35147,-24.01542 -24.6365,-45.13243 -42.8551,-63.35103 l 35.45049,-35.45049 c 22.67718,22.67802 40.44984,49.00264 53.31796,78.97389 12.8673,29.97208 19.30095,62.25294 19.30095,96.8426 0,34.3992 -6.43365,66.58441 -19.30095,96.55566 -12.86812,29.97124 -30.64078,56.39152 -53.31796,79.26083 z m 60.366,140.366 -35.45049,-35.45049 c 36.43718,-36.43719 65.00725,-78.67121 85.71021,-126.70205 20.70295,-48.03085 31.05442,-99.37416 31.05442,-154.02995 0,-54.84708 -10.35147,-106.28604 -31.05442,-154.31689 -20.70296,-48.03085 -49.27303,-90.16922 -85.71021,-126.41511 l 35.45049,-35.45049 c 40.89578,40.89661 72.95346,88.33825 96.17306,142.32492 23.21878,53.98749 34.82816,111.94002 34.82816,173.85757 0,61.72709 -11.60938,119.58397 -34.82816,173.57063 -23.2196,53.98666 -55.27728,101.52396 -96.17306,142.61186 z" style="stroke-width:1.01885" /></svg>