<svg height="24" viewBox="0 -960 960 960" width="24" version="1.1" xmlns="http://www.w3.org/2000/svg" xmlns:svg="http://www.w3.org/2000/svg"><path fill="#ffffff" d="m 422.83669,-216.2679 221.85146,-265.79307 h -171.4794 l 31.08065,-243.28639 -198.27305,286.15624 h 148.97271 z m -59.85274,115.08946 42.86985,-295.14283 H 223.65586 l 320.70078,-462.50029 h 19.78549 l -42.04461,333.89075 h 214.34926 l -353.67733,423.75237 z m 112.3683,-370.16507 z" style="stroke-width:1.07175" /><path fill="#ffffff" d="m 758.26678,-327.01541 -29.07709,-28.84072 c 16.8763,-16.87699 29.7818,-35.96116 38.71647,-57.2525 8.93467,-21.29134 13.40202,-43.5883 13.40202,-66.89086 0,-23.30324 -4.46735,-45.60054 -13.40202,-66.89188 -8.93467,-21.29134 -21.84017,-40.37551 -38.71647,-57.2525 l 29.07709,-29.07608 c 20.16789,20.1679 35.84262,43.37944 47.02421,69.63464 11.18092,26.25521 16.77137,54.11715 16.77137,83.58582 0,29.468 -5.59045,57.29053 -16.77137,83.46763 -11.18159,26.17641 -26.85632,49.34856 -47.02421,69.51645 z m 97.88849,98.12385 -29.07709,-29.07607 c 29.7295,-29.73018 52.52298,-63.5222 68.38043,-101.37604 15.85814,-37.85452 23.7872,-78.07313 23.7872,-120.65582 0,-42.74027 -7.92906,-82.99827 -23.7872,-120.77401 -15.85745,-37.77574 -38.65093,-71.52869 -68.38043,-101.25887 l 29.07709,-29.07607 c 33.54342,33.54341 59.2369,71.81567 77.08043,114.81676 17.84287,43.0011 26.7643,88.43183 26.7643,136.29219 0,47.70277 -8.92143,93.09377 -26.7643,136.17298 -17.84353,43.07989 -43.53701,81.39154 -77.08043,114.93495 z" style="stroke-width:1.01885" /><path fill="#ffffff" d="m 201.73318,-327.01541 29.07709,-28.84072 c -16.8763,-16.87699 -29.7818,-35.96116 -38.71647,-57.2525 -8.93467,-21.29134 -13.40202,-43.5883 -13.40202,-66.89086 0,-23.30324 4.46735,-45.60054 13.40202,-66.89188 8.93467,-21.29134 21.84017,-40.37551 38.71647,-57.2525 l -29.07709,-29.07608 c -20.16789,20.1679 -35.84262,43.37944 -47.02422,69.63464 -11.18087,26.25521 -16.77132,54.11715 -16.77132,83.58582 0,29.468 5.59045,57.29053 16.77132,83.46763 11.1816,26.17641 26.85633,49.34856 47.02422,69.51645 z m -97.88845,98.12385 29.07709,-29.07607 c -29.72957,-29.73018 -52.522977,-63.5222 -68.380438,-101.37604 -15.858164,-37.85452 -23.787196,-78.07313 -23.787196,-120.65582 0,-42.74027 7.929032,-82.99827 23.787196,-120.77401 15.857461,-37.77574 38.650868,-71.52869 68.380438,-101.25887 l -29.07709,-29.07607 C 70.301283,-697.56503 44.6078,-659.29277 26.764293,-616.29168 8.921397,-573.29058 0,-527.85985 0,-479.99949 c 0,47.70277 8.921397,93.09377 26.764293,136.17298 17.843507,43.07989 43.53699,81.39154 77.080437,114.93495 z" style="stroke-width:1.01885" /></svg>