<svg width="24" height="24" viewBox="0 -960 960 960" version="1.1" xml:space="preserve" xmlns="http://www.w3.org/2000/svg" xmlns:svg="http://www.w3.org/2000/svg"><path class="circle" style="stroke-width:0.781273" d="m 480.32288,-171.1302 c -42.7501,0 -82.93269,-8.11189 -120.54778,-24.33567 -37.61509,-16.22379 -70.33377,-38.24139 -98.15603,-66.0528 -27.82227,-27.81141 -49.85072,-60.51654 -66.08534,-98.11536 -16.2292,-37.59884 -24.3438,-77.77059 -24.3438,-120.51525 0,-42.7501 8.11189,-82.93269 24.33567,-120.54779 16.22378,-37.61509 38.24138,-70.33377 66.05279,-98.15604 27.81142,-27.82226 60.51655,-49.8507 98.11537,-66.08532 37.59884,-16.22921 77.77059,-24.34381 120.51525,-24.34381 42.75009,0 82.93268,8.11189 120.54778,24.33568 37.61509,16.22378 70.33377,38.24137 98.15603,66.05278 27.82227,27.81142 49.85071,60.51655 66.08534,98.11537 16.2292,37.59884 24.3438,77.77059 24.3438,120.51525 0,42.7501 -8.11189,82.9327 -24.33567,120.54779 -16.22378,37.61509 -38.24138,70.33376 -66.05279,98.15602 -27.81142,27.82227 -60.51654,49.85072 -98.11536,66.08534 -37.59884,16.22921 -77.77059,24.34381 -120.51526,24.34381 z m -0.0568,-59.06932 c 69.79354,0 128.90971,-24.2194 177.34851,-72.6582 48.43879,-48.43879 72.65819,-107.55496 72.65819,-177.3485 0,-69.79354 -24.2194,-128.90971 -72.65819,-177.3485 -48.4388,-48.43881 -107.55497,-72.65821 -177.34851,-72.65821 -69.79353,0 -128.9097,24.2194 -177.34849,72.65821 -48.43881,48.43879 -72.65821,107.55496 -72.65821,177.3485 0,69.79354 24.2194,128.90971 72.65821,177.3485 48.43879,48.4388 107.55496,72.6582 177.34849,72.6582 z" /><path class="note" style="stroke-width:0.781273" d="m 418.89711,-297.506 q 37.03225,0 63.02512,-25.94601 25.98508,-25.9382 25.98508,-63.00169 v -221.16218 h 91.35401 v -55.29055 H 470.6485 v 204.81799 q -11.53937,-8.05491 -24.62566,-12.68002 -13.09411,-4.63295 -27.05542,-4.63295 -37.06348,0 -63.00168,25.92259 -25.94601,25.92256 -25.94601,62.95481 0,37.03223 25.92257,63.02511 25.92257,25.9929 62.95481,25.9929 z" /></svg>